<svg width="16" height="16" viewBox="0 0 16 16" fill="none" xmlns="http://www.w3.org/2000/svg">
<path d="M7.99992 0C3.58876 0 0 3.58869 0 7.99977C0 12.4112 3.58876 16 7.99992 16C12.411 16 15.9997 12.4111 15.9997 7.99977C15.9997 3.58869 12.411 0 7.99992 0ZM7.99992 14.8532C4.2211 14.8532 1.14679 11.7787 1.14679 7.99977C1.14679 4.22102 4.2211 1.14679 7.99992 1.14679C11.7787 1.14679 14.8529 4.22102 14.8529 7.99977C14.8529 11.7787 11.7787 14.8532 7.99992 14.8532Z" fill="white"/>
<path d="M12.1133 7.86591H8.35382V3.75642C8.35382 3.43976 8.09717 3.18303 7.78043 3.18303C7.46376 3.18303 7.20703 3.43976 7.20703 3.75642V8.4393C7.20703 8.75597 7.46376 9.0127 7.78043 9.0127H12.1133C12.43 9.0127 12.6867 8.75597 12.6867 8.4393C12.6867 8.12263 12.43 7.86591 12.1133 7.86591Z" fill="white"/>
</svg>
