<svg width="16" height="16" viewBox="0 0 16 16" fill="none" xmlns="http://www.w3.org/2000/svg">
<path d="M15.9111 7.88162C15.4128 7.1924 14.5653 6.24712 13.5314 5.37943C11.9543 4.0559 10.0594 3 8.00001 3C5.90867 3 3.95561 4.10053 2.37574 5.45684C0.984616 6.65109 0.124836 7.83193 0.0888983 7.88162C-0.0296328 8.04555 -0.0296328 8.26699 0.0888983 8.4309C0.520523 9.02789 1.2629 9.89214 2.21871 10.7281C3.73714 12.056 5.79426 13.3125 8.00001 13.3125C9.98848 13.3125 11.8047 12.3336 13.3438 11.0864C14.3994 10.2309 15.3198 9.2488 15.9111 8.4309C16.0296 8.26696 16.0296 8.04552 15.9111 7.88162ZM12.8125 10.3118C11.5313 11.3708 9.83301 12.375 8.00001 12.375C6.1557 12.375 4.31714 11.3266 2.81255 9.99564C2.15633 9.41514 1.56365 8.7809 1.06174 8.15643C1.36993 7.77355 1.99683 7.04218 2.84377 6.29449C4.15655 5.13556 5.99789 3.9375 8.00001 3.9375C9.74338 3.9375 11.4816 4.87425 12.9375 6.10099C13.6935 6.73802 14.3734 7.45324 14.9383 8.15608C14.5898 8.58908 13.8335 9.46783 12.8125 10.3118Z" fill="white"/>
<path d="M7.99999 4.99998C6.19072 4.99998 4.71875 6.47195 4.71875 8.28123C4.71875 10.0905 6.19072 11.5625 7.99999 11.5625C9.80927 11.5625 11.2812 10.0905 11.2812 8.28123C11.2812 6.47195 9.80927 4.99998 7.99999 4.99998ZM7.99999 10.625C6.70765 10.625 5.65625 9.57357 5.65625 8.28123C5.65625 6.98889 6.70765 5.93748 7.99999 5.93748C9.29233 5.93748 10.3437 6.98889 10.3437 8.28123C10.3437 9.57357 9.29233 10.625 7.99999 10.625Z" fill="white"/>
<path d="M8 6.99998C7.22459 6.99998 6.59375 7.63083 6.59375 8.40623C6.59375 9.18164 7.22459 9.81248 8 9.81248C8.7754 9.81248 9.40624 9.18164 9.40624 8.40623C9.40624 7.63083 8.7754 6.99998 8 6.99998ZM8 8.87498C7.74153 8.87498 7.53125 8.6647 7.53125 8.40623C7.53125 8.14776 7.74153 7.93748 8 7.93748C8.25847 7.93748 8.46875 8.14776 8.46875 8.40623C8.46875 8.6647 8.25847 8.87498 8 8.87498Z" fill="white"/>
</svg>
