<svg width="16" height="16" viewBox="0 0 16 16" fill="none" xmlns="http://www.w3.org/2000/svg">
<g clip-path="url(#clip0_1_6150)">
<path d="M15.7625 5.78327C15.5512 5.51821 15.2342 5.36615 14.8928 5.36615H11.8114L10.1405 1.54011C10.0369 1.30289 9.76059 1.19449 9.52334 1.29814C9.28609 1.40174 9.17775 1.67808 9.28138 1.91533L10.7884 5.36618H5.21159L6.71863 1.91533C6.82222 1.67808 6.71391 1.40177 6.47666 1.29814C6.23944 1.19449 5.96309 1.30283 5.8595 1.54011L4.1886 5.36618H1.10722C0.765783 5.36618 0.448814 5.51821 0.237533 5.7833C0.030127 6.04355 -0.0464043 6.37812 0.0275645 6.7013L1.6731 13.8888C1.788 14.3907 2.23197 14.7412 2.75275 14.7412H13.2472C13.768 14.7412 14.212 14.3907 14.3269 13.8888L15.9724 6.70127C16.0464 6.37808 15.9699 6.04352 15.7625 5.78327ZM13.2472 13.8037H2.75275C2.67316 13.8037 2.60344 13.7515 2.58697 13.6795L0.941439 6.49208C0.928533 6.43568 0.950189 6.39324 0.970689 6.36758C0.989689 6.34371 1.03272 6.30368 1.10722 6.30368H3.77919L3.65641 6.58483C3.55281 6.82208 3.66113 7.0984 3.89838 7.20202C3.95944 7.22871 4.02306 7.24134 4.08572 7.24134C4.26641 7.24134 4.43859 7.13624 4.51553 6.96009L4.80219 6.30374H11.1979L11.4845 6.96009C11.5615 7.13627 11.7337 7.24134 11.9143 7.24134C11.977 7.24134 12.0406 7.22871 12.1017 7.20202C12.3389 7.09843 12.4473 6.82208 12.3437 6.58483L12.2209 6.30368H14.8928C14.9673 6.30368 15.0104 6.34371 15.0294 6.36758C15.0498 6.39327 15.0715 6.43571 15.0586 6.49205L13.4131 13.6796C13.3966 13.7515 13.3268 13.8037 13.2472 13.8037Z" fill="#111827"/>
<path d="M5.1875 8.3349C4.92862 8.3349 4.71875 8.54477 4.71875 8.80365V12.2411C4.71875 12.5 4.92862 12.7099 5.1875 12.7099C5.44638 12.7099 5.65625 12.5 5.65625 12.2411V8.80365C5.65625 8.54477 5.44641 8.3349 5.1875 8.3349Z" fill="#111827"/>
<path d="M8 8.3349C7.74112 8.3349 7.53125 8.54477 7.53125 8.80365V12.2411C7.53125 12.5 7.74112 12.7099 8 12.7099C8.25888 12.7099 8.46875 12.5 8.46875 12.2411V8.80365C8.46875 8.54477 8.25888 8.3349 8 8.3349Z" fill="#111827"/>
<path d="M10.8125 8.3349C10.5536 8.3349 10.3438 8.54477 10.3438 8.80365V12.2411C10.3438 12.5 10.5536 12.7099 10.8125 12.7099C11.0714 12.7099 11.2812 12.5 11.2812 12.2411V8.80365C11.2812 8.54477 11.0714 8.3349 10.8125 8.3349Z" fill="#111827"/>
</g>
<defs>
<clipPath id="clip0_1_6150">
<rect width="16" height="16" fill="white"/>
</clipPath>
</defs>
</svg>
