<svg width="16" height="16" viewBox="0 0 16 16" fill="none" xmlns="http://www.w3.org/2000/svg">
<g clip-path="url(#clip0_1_6136)">
<g clip-path="url(#clip1_1_6136)">
<path d="M15.5848 13.6021L9.98385 8.00117L10.2378 7.74723C10.4904 7.49461 10.8153 7.34436 11.1525 7.3242C11.7248 7.29005 12.2634 7.04783 12.669 6.6422L15.9845 3.32676L15.3214 2.66366L12.7795 5.20551L12.1164 4.54242L14.6583 2.00054L13.9952 1.33744L11.4533 3.87929L10.7902 3.21619L13.3321 0.674345L12.669 0.0112813L9.3535 3.32676C8.94788 3.73238 8.70569 4.27091 8.67147 4.84326C8.65131 5.18051 8.50113 5.50536 8.24847 5.75798L7.99456 6.01189L1.98268 0H1.40992L1.29299 0.297188C0.984299 1.08156 0.852424 1.88382 0.911642 2.61716C0.979143 3.45304 1.29667 4.17676 1.83002 4.71007L5.56321 8.44327L0.419141 13.5873C-0.129297 14.1358 -0.129297 15.0282 0.419141 15.5766C0.99483 16.1523 1.89221 16.0928 2.4084 15.5766L7.99456 9.99043L13.5955 15.5914C14.1998 16.1957 15.1029 16.0733 15.5848 15.5914C16.1332 15.043 16.1332 14.1506 15.5848 13.6021ZM8.91156 6.42108C9.32657 6.00607 9.57375 5.46564 9.6076 4.8992C9.6281 4.55604 9.77338 4.23307 10.0166 3.98982L10.1272 3.87929L12.1164 5.86857L12.0059 5.97911C11.7627 6.22236 11.4397 6.36761 11.0966 6.38814C10.5301 6.42198 9.98966 6.66914 9.57469 7.08414L9.32078 7.33808L9.31172 7.32901L8.65766 6.67498L8.91156 6.42108ZM1.74533 14.9136C1.56252 15.0964 1.26508 15.0964 1.08224 14.9136C0.899424 14.7307 0.899424 14.4333 1.08224 14.2505L6.22634 9.10636L6.88947 9.76946L1.74533 14.9136ZM7.54347 9.0973L2.49308 4.04695C1.78239 3.33623 1.73133 2.25382 1.95793 1.30147L8.6486 7.99214L7.54347 9.0973ZM14.9217 14.9283C14.7388 15.1111 14.4414 15.1111 14.2586 14.9283L8.65763 9.32739L9.32072 8.6643L14.9217 14.2652C15.0102 14.3537 15.059 14.4715 15.059 14.5967C15.059 14.722 15.0102 14.8397 14.9217 14.9283Z" fill="#111827"/>
</g>
</g>
<defs>
<clipPath id="clip0_1_6136">
<rect width="16" height="16" fill="white"/>
</clipPath>
<clipPath id="clip1_1_6136">
<rect width="16" height="16" fill="white"/>
</clipPath>
</defs>
</svg>
