<svg width="80" height="99" viewBox="0 0 80 99" fill="none" xmlns="http://www.w3.org/2000/svg">
<path d="M44.8411 3.12288C44.8594 2.48629 45.1266 1.88187 45.586 1.43803C46.0453 0.994185 46.6605 0.74589 47.301 0.74589C47.9416 0.74589 48.5568 0.994185 49.0161 1.43803C49.4755 1.88187 49.7427 2.48629 49.761 3.12288V40.7958C49.7427 41.4324 49.4755 42.0368 49.0161 42.4806C48.5568 42.9245 47.9416 43.1728 47.301 43.1728C46.6605 43.1728 46.0453 42.9245 45.586 42.4806C45.1266 42.0368 44.8594 41.4324 44.8411 40.7958V3.12288ZM30.2383 3.12288C30.2383 2.47393 30.4975 1.85156 30.9591 1.39269C31.4206 0.933813 32.0465 0.676018 32.6992 0.676018C33.3519 0.676018 33.9778 0.933813 34.4393 1.39269C34.9008 1.85156 35.1601 2.47393 35.1601 3.12288V40.7958C35.1601 41.4447 34.9008 42.0671 34.4393 42.526C33.9778 42.9848 33.3519 43.2426 32.6992 43.2426C32.0465 43.2426 31.4206 42.9848 30.9591 42.526C30.4975 42.0671 30.2383 41.4447 30.2383 40.7958V3.12288ZM51.6739 96.1994C51.6739 96.8484 51.4146 97.4708 50.9531 97.9296C50.4916 98.3885 49.8657 98.6463 49.213 98.6463C48.5603 98.6463 47.9343 98.3885 47.4728 97.9296C47.0113 97.4708 46.7521 96.8484 46.7521 96.1994V75.5827C46.7521 66.0228 48.9962 59.9735 51.2744 53.8284C53.4824 47.8909 55.7145 41.8535 55.7145 32.1799V2.90135C55.7051 2.57428 55.7618 2.24864 55.8812 1.94373C56.0006 1.63882 56.1803 1.36081 56.4096 1.12616C56.639 0.891508 56.9133 0.704976 57.2165 0.577604C57.5196 0.450232 57.8453 0.384613 58.1744 0.384613C58.5035 0.384613 58.8293 0.450232 59.1324 0.577604C59.4355 0.704976 59.7099 0.891508 59.9392 1.12616C60.1686 1.36081 60.3482 1.63882 60.4676 1.94373C60.587 2.24864 60.6437 2.57428 60.6343 2.90135V32.1739C60.6343 42.6978 58.2417 49.1542 55.8871 55.5049C53.7635 61.2348 51.6719 66.881 51.6719 75.5827L51.6739 96.1994ZM19.3569 2.91133C19.3569 2.26238 19.6161 1.64001 20.0776 1.18113C20.5392 0.722258 21.1651 0.464462 21.8178 0.464462C22.4704 0.464462 23.0964 0.722258 23.5579 1.18113C24.0194 1.64001 24.2787 2.26238 24.2787 2.91133V32.1739C24.2787 41.8476 26.5168 47.8849 28.7168 53.8224C30.997 59.9735 33.2391 66.0228 33.2391 75.5767V96.1994C33.2485 96.5265 33.1919 96.8521 33.0725 97.157C32.9531 97.4619 32.7734 97.74 32.544 97.9746C32.3147 98.2093 32.0403 98.3958 31.7372 98.5232C31.4341 98.6505 31.1083 98.7162 30.7792 98.7162C30.4501 98.7162 30.1244 98.6505 29.8213 98.5232C29.5181 98.3958 29.2438 98.2093 29.0144 97.9746C28.7851 97.74 28.6054 97.4619 28.486 97.157C28.3666 96.8521 28.3099 96.5265 28.3193 96.1994V75.5827C28.3193 66.873 26.2277 61.2348 24.1041 55.5049C21.7515 49.1542 19.3569 42.6978 19.3569 32.1739V2.91133Z" fill="white"/>
<path d="M31.3814 93.8184C31.6968 93.8939 31.9941 94.0308 32.256 94.221C32.5179 94.4113 32.7393 94.6513 32.9075 94.9271C33.0757 95.203 33.1872 95.5092 33.2357 95.8281C33.2843 96.147 33.2688 96.4723 33.1902 96.7852C33.1116 97.0982 32.9715 97.3926 32.7779 97.6514C32.5843 97.9102 32.3411 98.1283 32.0622 98.2932C31.7834 98.458 31.4745 98.5663 31.1534 98.6119C30.8322 98.6574 30.5052 98.6393 30.1911 98.5585C22.4657 96.604 15.5079 92.3893 10.2182 86.4596C4.92848 80.53 1.55024 73.1584 0.520624 65.2987C-0.508995 57.439 0.857398 49.4529 4.44299 42.3739C8.02859 35.2948 13.6684 29.4486 20.6325 25.5917C21.2011 25.2773 21.872 25.2003 22.4976 25.3777C23.1233 25.5551 23.6524 25.9724 23.9686 26.5377C24.2848 27.103 24.3622 27.7701 24.1838 28.3922C24.0054 29.0142 23.5857 29.5403 23.0172 29.8548C16.9192 33.2398 11.982 38.3649 8.84307 44.568C5.70413 50.7712 4.50763 57.7676 5.4081 64.6537C6.30857 71.5398 9.26464 77.9994 13.8946 83.1982C18.5245 88.397 24.6157 92.0963 31.3814 93.8184ZM56.9821 29.8548C56.425 29.5347 56.0167 29.0098 55.8452 28.3931C55.6737 27.7765 55.7527 27.1176 56.0653 26.5584C56.3778 25.9992 56.8988 25.5844 57.516 25.4036C58.1332 25.2228 58.7972 25.2903 59.3648 25.5917C66.3298 29.4478 71.9706 35.2937 75.557 42.3728C79.1434 49.4519 80.5103 57.4383 79.4809 65.2984C78.4514 73.1586 75.0729 80.5306 69.7828 86.4603C64.4926 92.3901 57.5342 96.6046 49.8082 98.5585C49.176 98.7157 48.5069 98.6168 47.9481 98.2835C47.3893 97.9502 46.9865 97.4098 46.8284 96.7812C46.6703 96.1527 46.7698 95.4874 47.105 94.9317C47.4402 94.3761 47.9837 93.9756 48.6159 93.8184C55.3873 92.1034 61.4853 88.4075 66.1209 83.2087C70.7565 78.01 73.7164 71.5476 74.6175 64.6579C75.5187 57.7682 74.3197 50.7681 71.1756 44.5634C68.0316 38.3586 63.0872 33.2348 56.9821 29.8548Z" fill="white"/>
</svg>
