<svg width="28" height="24" viewBox="0 0 28 24" fill="none" xmlns="http://www.w3.org/2000/svg">
<path d="M3.67279 1.00983C1.44863 2.32004 0 4.79278 0 7.75442C0 12.5153 3.9862 15.7707 9.95374 20.643L10.084 20.7494C12.2737 22.5465 12.9545 23.121 13.4652 23.5519L13.4699 23.5559L13.5227 23.6004C13.6793 23.7325 13.8241 23.8548 13.9986 24C14.1834 23.8473 14.3438 23.7123 14.553 23.5363H14.554L14.5853 23.51C15.089 23.0866 15.882 22.4198 17.9126 20.7503C18.4246 20.3342 18.8273 19.7933 19.0839 19.1768C20.1641 16.5647 20.4029 14.0691 20.3804 13.0811C18.8991 12.6418 17.2293 10.2467 16.8358 8.83821C16.6558 8.23455 16.6551 7.58954 16.8338 6.98547C17.0125 6.3814 17.3624 5.84577 17.8389 5.44687C18.3132 5.0509 18.8929 4.8115 19.5021 4.75995C20.1112 4.70846 20.7213 4.84726 21.2523 5.15815C21.6059 5.3658 21.9158 5.64366 22.1639 5.97545C22.412 6.30729 22.5933 6.68651 22.6972 7.09095C23.0654 8.43535 22.9305 11.1651 22.0227 12.4455C22.0377 12.5126 22.0501 12.5864 22.0633 12.6647C22.0694 12.7055 22.0761 12.7472 22.0836 12.7896C22.2683 14.0377 22.2942 15.3051 22.1607 16.5599C22.1335 16.8155 22.4268 16.9713 22.6153 16.802C25.9608 13.7951 28 11.1595 28 7.75442C28 3.3328 24.7703 2.66642e-08 20.5737 2.66642e-08C17.2565 2.66642e-08 15.1259 2.24465 14.0099 4.26202C12.8816 2.24465 10.766 2.66642e-08 7.44883 2.66642e-08H7.44274C7.23417 -5.07056e-05 7.03171 0.0722935 6.86824 0.205263C6.70476 0.338232 6.58988 0.524115 6.54225 0.732574C6.52514 0.808165 6.51221 0.884669 6.50349 0.961731C6.17552 3.67484 6.73056 6.42316 8.08216 8.7786L8.16107 8.67592C8.23975 8.5666 8.33868 8.47426 8.4522 8.4043C8.56571 8.33429 8.69157 8.28802 8.82255 8.26809C8.95352 8.2482 9.08705 8.255 9.21544 8.28823C9.34384 8.32141 9.46458 8.38036 9.57074 8.46158L13.0466 11.4182C13.0761 11.4437 13.1003 11.4753 13.1173 11.5109C13.1348 11.5466 13.145 11.5855 13.1474 11.6252C13.1497 11.665 13.1442 11.7048 13.1312 11.7424C13.1223 11.7683 13.1099 11.7928 13.0945 11.8151C13.0876 11.8251 13.08 11.8347 13.0719 11.8437L13.0466 11.8731C12.98 11.9653 12.881 12.0272 12.7707 12.0457C12.6604 12.0642 12.5473 12.0379 12.4556 11.9723L10.2002 10.0436C10.1277 9.99359 10.0395 9.9733 9.95311 9.98679C9.86671 10.0003 9.7884 10.0466 9.73365 10.1165C9.67813 10.1868 9.64956 10.2755 9.65329 10.3659C9.65703 10.4563 9.69282 10.5421 9.75393 10.6073L12.0093 12.5416C12.1087 12.6377 12.1692 12.7686 12.1788 12.9084C12.1884 13.0482 12.1464 13.1866 12.0611 13.2961C11.9767 13.4048 11.8548 13.4759 11.7206 13.4944C11.5865 13.513 11.4505 13.4777 11.3411 13.3958L9.05772 11.4615C8.98556 11.4277 8.90431 11.4201 8.82739 11.44C8.75047 11.4599 8.68244 11.5062 8.63454 11.5711C8.586 11.6365 8.55995 11.7165 8.56049 11.7987C8.56105 11.8809 8.58817 11.9605 8.63759 12.0252L10.8936 13.9561C10.9783 14.0373 11.0289 14.1491 11.0346 14.2679C11.0402 14.3867 11.0005 14.5031 10.9238 14.5923L10.9013 14.6246C10.8793 14.6573 10.8511 14.685 10.8183 14.706C10.7858 14.7274 10.7492 14.7415 10.711 14.7477C10.6728 14.7535 10.6339 14.7512 10.5967 14.7408C10.5594 14.7305 10.5247 14.7123 10.4946 14.6875L7.00538 11.7227C6.80477 11.5342 6.68413 11.2725 6.66938 10.9937C6.65462 10.7149 6.74692 10.4413 6.92646 10.2315L6.97717 10.1669C6.26677 9.35396 3.85922 6.21901 3.68719 1.16126C3.68577 1.11053 3.68095 1.0599 3.67279 1.00983Z" fill="white"/>
<path d="M18.7443 5.66451C18.2513 5.84547 17.8391 6.20389 17.5839 6.67332C17.3224 7.15172 17.2296 7.70815 17.3212 8.24871C17.4166 6.79746 20.102 5.43936 21.1825 6.3115C20.8952 5.94734 20.5023 5.68683 20.0609 5.56786C19.6235 5.45164 19.1611 5.48558 18.7443 5.66451Z" fill="white"/>
</svg>
