<svg width="24" height="24" viewBox="0 0 24 24" fill="none" xmlns="http://www.w3.org/2000/svg">
<path d="M12.5 3.51471C12.5 3.23857 12.2761 3.01471 12 3.01471C11.7239 3.01471 11.5 3.23857 11.5 3.51471H12.5ZM11.5 20.4853C11.5 20.7614 11.7239 20.9853 12 20.9853C12.2761 20.9853 12.5 20.7614 12.5 20.4853H11.5ZM11.5 3.51471L11.5 20.4853H12.5L12.5 3.51471H11.5Z" fill="#16A249"/>
<path d="M3.51562 11.5C3.23948 11.5 3.01562 11.7239 3.01563 12C3.01562 12.2761 3.23948 12.5 3.51562 12.5V11.5ZM20.4862 12.5C20.7623 12.5 20.9862 12.2761 20.9862 12C20.9862 11.7239 20.7623 11.5 20.4862 11.5V12.5ZM3.51562 12.5L20.4862 12.5V11.5L3.51562 11.5V12.5Z" fill="#16A249"/>
</svg>
