<svg width="25" height="24" viewBox="0 0 25 24" fill="none" xmlns="http://www.w3.org/2000/svg">
<circle cx="12.5" cy="12" r="12" fill="#16A249"/>
<path d="M13 5.63605C13 5.3599 12.7761 5.13605 12.5 5.13605C12.2239 5.13605 12 5.3599 12 5.63605H13ZM12 18.364C12 18.6401 12.2239 18.864 12.5 18.864C12.7761 18.864 13 18.6401 13 18.364H12ZM12 5.63605L12 18.364H13L13 5.63605H12Z" fill="white"/>
<path d="M6.13672 11.5C5.86058 11.5 5.63672 11.7239 5.63672 12C5.63672 12.2761 5.86058 12.5 6.13672 12.5V11.5ZM18.8646 12.5C19.1408 12.5 19.3646 12.2761 19.3646 12C19.3646 11.7239 19.1408 11.5 18.8646 11.5V12.5ZM6.13672 12.5L18.8646 12.5V11.5L6.13672 11.5V12.5Z" fill="white"/>
</svg>
