<svg width="35" height="35" viewBox="0 0 35 35" fill="none" xmlns="http://www.w3.org/2000/svg">
<rect width="34.5135" height="34.5135" rx="9.41278" fill="#16A249"/>
<g clip-path="url(#clip0_1_3300)">
<path d="M18.5226 5.26147C18.5274 5.09502 18.5973 4.93698 18.7174 4.82093C18.8375 4.70488 18.9984 4.63996 19.1658 4.63996C19.3333 4.63996 19.4942 4.70488 19.6143 4.82093C19.7344 4.93698 19.8042 5.09502 19.809 5.26147V15.1116C19.8042 15.2781 19.7344 15.4361 19.6143 15.5522C19.4942 15.6682 19.3333 15.7331 19.1658 15.7331C18.9984 15.7331 18.8375 15.6682 18.7174 15.5522C18.5973 15.4361 18.5274 15.2781 18.5226 15.1116V5.26147ZM14.7045 5.26147C14.7045 5.09179 14.7723 4.92906 14.893 4.80908C15.0136 4.6891 15.1773 4.62169 15.3479 4.62169C15.5186 4.62169 15.6823 4.6891 15.8029 4.80908C15.9236 4.92906 15.9914 5.09179 15.9914 5.26147V15.1116C15.9914 15.2813 15.9236 15.4441 15.8029 15.564C15.6823 15.684 15.5186 15.7514 15.3479 15.7514C15.1773 15.7514 15.0136 15.684 14.893 15.564C14.7723 15.4441 14.7045 15.2813 14.7045 15.1116V5.26147ZM20.3092 29.5978C20.3092 29.7675 20.2414 29.9302 20.1207 30.0502C20 30.1702 19.8364 30.2376 19.6657 30.2376C19.4951 30.2376 19.3314 30.1702 19.2107 30.0502C19.0901 29.9302 19.0223 29.7675 19.0223 29.5978V24.2072C19.0223 21.7077 19.6091 20.126 20.2047 18.5192C20.7821 16.9668 21.3657 15.3882 21.3657 12.8589V5.20354C21.3632 5.11802 21.378 5.03288 21.4092 4.95316C21.4405 4.87343 21.4874 4.80074 21.5474 4.73939C21.6074 4.67804 21.6791 4.62927 21.7584 4.59596C21.8376 4.56266 21.9228 4.5455 22.0089 4.5455C22.0949 4.5455 22.1801 4.56266 22.2593 4.59596C22.3386 4.62927 22.4103 4.67804 22.4703 4.73939C22.5303 4.80074 22.5772 4.87343 22.6084 4.95316C22.6397 5.03288 22.6545 5.11802 22.652 5.20354V12.8573C22.652 15.609 22.0264 17.2971 21.4108 18.9576C20.8555 20.4558 20.3087 21.932 20.3087 24.2072L20.3092 29.5978ZM11.8594 5.20615C11.8594 5.03647 11.9272 4.87375 12.0478 4.75376C12.1685 4.63378 12.3322 4.56638 12.5028 4.56638C12.6735 4.56638 12.8371 4.63378 12.9578 4.75376C13.0785 4.87375 13.1463 5.03647 13.1463 5.20615V12.8573C13.1463 15.3867 13.7315 16.9652 14.3067 18.5177C14.9029 20.126 15.4891 21.7077 15.4891 24.2057V29.5978C15.4916 29.6833 15.4768 29.7685 15.4455 29.8482C15.4143 29.9279 15.3673 30.0006 15.3074 30.062C15.2474 30.1233 15.1757 30.1721 15.0964 30.2054C15.0172 30.2387 14.932 30.2559 14.8459 30.2559C14.7599 30.2559 14.6747 30.2387 14.5955 30.2054C14.5162 30.1721 14.4445 30.1233 14.3845 30.062C14.3245 30.0006 14.2775 29.9279 14.2463 29.8482C14.2151 29.7685 14.2003 29.6833 14.2028 29.5978V24.2072C14.2028 21.93 13.6559 20.4558 13.1006 18.9576C12.4855 17.2971 11.8594 15.609 11.8594 12.8573V5.20615Z" fill="white"/>
<path d="M15.0035 28.9753C15.0859 28.995 15.1636 29.0308 15.2321 29.0805C15.3006 29.1303 15.3585 29.193 15.4025 29.2652C15.4464 29.3373 15.4756 29.4174 15.4883 29.5007C15.501 29.5841 15.4969 29.6692 15.4764 29.751C15.4558 29.8328 15.4192 29.9098 15.3686 29.9775C15.318 30.0451 15.2544 30.1022 15.1815 30.1453C15.1086 30.1884 15.0278 30.2167 14.9438 30.2286C14.8599 30.2405 14.7743 30.2358 14.6922 30.2146C12.6723 29.7036 10.8531 28.6016 9.46998 27.0512C8.0869 25.5008 7.20361 23.5734 6.9344 21.5183C6.66519 19.4633 7.02245 17.3752 7.95996 15.5243C8.89747 13.6733 10.3721 12.1448 12.193 11.1363C12.3416 11.0541 12.5171 11.034 12.6806 11.0804C12.8442 11.1268 12.9826 11.2359 13.0652 11.3837C13.1479 11.5315 13.1682 11.7059 13.1215 11.8685C13.0749 12.0312 12.9651 12.1687 12.8165 12.251C11.2221 13.136 9.93116 14.4761 9.11043 16.098C8.28971 17.7199 7.97686 19.5492 8.2123 21.3497C8.44775 23.1502 9.22066 24.8391 10.4312 26.1984C11.6418 27.5578 13.2344 28.525 15.0035 28.9753V28.9753ZM21.6972 12.251C21.5515 12.1673 21.4447 12.03 21.3999 11.8688C21.355 11.7076 21.3757 11.5353 21.4574 11.3891C21.5391 11.2428 21.6754 11.1344 21.8368 11.0871C21.9981 11.0398 22.1717 11.0575 22.3201 11.1363C24.1413 12.1445 25.6161 13.673 26.5539 15.524C27.4916 17.3749 27.849 19.4631 27.5798 21.5183C27.3106 23.5734 26.4273 25.501 25.0441 27.0514C23.6609 28.6018 21.8415 29.7038 19.8214 30.2146C19.6561 30.2557 19.4812 30.2299 19.3351 30.1427C19.189 30.0556 19.0836 29.9143 19.0423 29.7499C19.001 29.5856 19.027 29.4116 19.1146 29.2664C19.2023 29.1211 19.3444 29.0164 19.5097 28.9753C21.2802 28.5269 22.8746 27.5605 24.0866 26.2012C25.2987 24.8419 26.0726 23.1522 26.3082 21.3508C26.5438 19.5494 26.2303 17.7191 25.4083 16.0967C24.5862 14.4744 23.2934 13.1347 21.6972 12.251Z" fill="white"/>
</g>
<defs>
<clipPath id="clip0_1_3300">
<rect width="20.8222" height="25.6712" fill="white" transform="translate(6.84619 4.56375)"/>
</clipPath>
</defs>
</svg>
