<svg width="16" height="16" viewBox="0 0 16 16" fill="none" xmlns="http://www.w3.org/2000/svg">
<g clip-path="url(#clip0_175_6230)">
<path d="M15.7625 5.78324C15.5512 5.51818 15.2342 5.36612 14.8928 5.36612H11.8114L10.1405 1.54008C10.0369 1.30286 9.76059 1.19445 9.52334 1.29811C9.28609 1.4017 9.17775 1.67805 9.28138 1.9153L10.7884 5.36615H5.2116L6.71863 1.9153C6.82222 1.67805 6.71391 1.40174 6.47666 1.29811C6.23944 1.19445 5.96309 1.3028 5.8595 1.54008L4.1886 5.36615H1.10722C0.765783 5.36615 0.448814 5.51818 0.237533 5.78327C0.030127 6.04352 -0.0464043 6.37809 0.0275645 6.70127L1.6731 13.8888C1.788 14.3907 2.23197 14.7412 2.75275 14.7412H13.2472C13.768 14.7412 14.212 14.3907 14.3269 13.8888L15.9724 6.70124C16.0464 6.37805 15.9699 6.04349 15.7625 5.78324ZM13.2472 13.8036H2.75275C2.67316 13.8036 2.60344 13.7514 2.58697 13.6795L0.941439 6.49205C0.928533 6.43565 0.950189 6.39321 0.970689 6.36755C0.989689 6.34368 1.03272 6.30365 1.10722 6.30365H3.77919L3.65641 6.5848C3.55281 6.82205 3.66113 7.09837 3.89838 7.20199C3.95944 7.22868 4.02306 7.2413 4.08572 7.2413C4.26641 7.2413 4.43859 7.13621 4.51553 6.96005L4.80219 6.30371H11.1979L11.4845 6.96005C11.5615 7.13624 11.7337 7.2413 11.9143 7.2413C11.977 7.2413 12.0406 7.22868 12.1017 7.20199C12.3389 7.0984 12.4473 6.82205 12.3437 6.5848L12.2209 6.30365H14.8928C14.9673 6.30365 15.0104 6.34368 15.0294 6.36755C15.0498 6.39324 15.0715 6.43568 15.0586 6.49202L13.4131 13.6795C13.3966 13.7514 13.3268 13.8036 13.2472 13.8036Z" fill="#16A249"/>
<path d="M5.1875 8.33496C4.92862 8.33496 4.71875 8.54484 4.71875 8.80371V12.2412C4.71875 12.5001 4.92862 12.71 5.1875 12.71C5.44638 12.71 5.65625 12.5001 5.65625 12.2412V8.80371C5.65625 8.54484 5.44641 8.33496 5.1875 8.33496Z" fill="#16A249"/>
<path d="M8 8.33496C7.74112 8.33496 7.53125 8.54484 7.53125 8.80371V12.2412C7.53125 12.5001 7.74112 12.71 8 12.71C8.25888 12.71 8.46875 12.5001 8.46875 12.2412V8.80371C8.46875 8.54484 8.25888 8.33496 8 8.33496Z" fill="#16A249"/>
<path d="M10.8125 8.33496C10.5536 8.33496 10.3438 8.54484 10.3438 8.80371V12.2412C10.3438 12.5001 10.5536 12.71 10.8125 12.71C11.0714 12.71 11.2812 12.5001 11.2812 12.2412V8.80371C11.2812 8.54484 11.0714 8.33496 10.8125 8.33496Z" fill="#16A249"/>
</g>
<defs>
<clipPath id="clip0_175_6230">
<rect width="16" height="16" fill="white"/>
</clipPath>
</defs>
</svg>
