<svg width="16" height="16" viewBox="0 0 16 16" fill="none" xmlns="http://www.w3.org/2000/svg">
<path d="M14.6154 1.07697H1.38462C0.621125 1.07697 0 1.69809 0 2.46156V11.0769C0 11.8404 0.621125 12.4616 1.38462 12.4616H5.92309L7.63078 14.7385C7.71794 14.8547 7.85472 14.9231 8 14.9231C8.14528 14.9231 8.28206 14.8547 8.36922 14.7385L10.0769 12.4616H14.6154C15.3788 12.4616 16 11.8404 16 11.0769V2.46156C16 1.69809 15.3789 1.07697 14.6154 1.07697ZM15.0769 11.077C15.0769 11.3315 14.8699 11.5385 14.6154 11.5385H9.84616C9.70088 11.5385 9.56409 11.6069 9.47694 11.7231L8 13.6923L6.52306 11.7231C6.43591 11.6069 6.29913 11.5385 6.15384 11.5385H1.38462C1.13012 11.5385 0.923094 11.3315 0.923094 11.077V2.46156C0.923063 2.20706 1.13012 2.00003 1.38462 2.00003H14.6154C14.8699 2.00003 15.0769 2.20706 15.0769 2.46156V11.077Z" fill="#111827"/>
<path d="M9.52397 6.65342C10.0037 6.23026 10.3071 5.61163 10.3071 4.92317C10.3071 3.6507 9.27188 2.61548 7.99941 2.61548C6.72694 2.61548 5.69172 3.6507 5.69172 4.92317C5.69172 5.61163 5.99516 6.23023 6.47484 6.65342C5.28475 7.22401 4.46094 8.44067 4.46094 9.84626C4.46094 10.1012 4.66759 10.3078 4.92247 10.3078H11.0763C11.3312 10.3078 11.5378 10.1011 11.5378 9.84626C11.5379 8.4407 10.7141 7.22401 9.52397 6.65342ZM7.99941 3.53857C8.76288 3.53857 9.38403 4.1597 9.38403 4.9232C9.38403 5.6867 8.76288 6.30779 7.99941 6.30779C7.23594 6.30779 6.61478 5.68667 6.61478 4.92317C6.61478 4.15967 7.23594 3.53857 7.99941 3.53857ZM5.42478 9.38473C5.64341 8.16198 6.71475 7.23088 7.99941 7.23088C9.28406 7.23088 10.3554 8.16198 10.574 9.38473H5.42478Z" fill="#111827"/>
</svg>
