<svg width="16" height="16" viewBox="0 0 16 16" fill="none" xmlns="http://www.w3.org/2000/svg">
<path d="M0.468773 13.1562H2.81252V14.5625C2.81252 14.8213 3.02239 15.0312 3.28127 15.0312H15.5312C15.7901 15.0312 16 14.8213 16 14.5625V2.375C16 2.11612 15.7901 1.90625 15.5312 1.90625H13.1875V1.4375C13.1875 1.17862 12.9776 0.96875 12.7187 0.96875C12.4599 0.96875 12.25 1.17862 12.25 1.4375V1.90625H9.875V1.4375C9.875 1.17862 9.66512 0.96875 9.40625 0.96875C9.14738 0.96875 8.9375 1.17862 8.9375 1.4375V1.90625H6.59376V1.4375C6.59376 1.17862 6.38388 0.96875 6.12501 0.96875C5.86613 0.96875 5.65626 1.17862 5.65626 1.4375V1.90625H3.28127C3.02239 1.90625 2.81252 2.11612 2.81252 2.375V5.18749C2.81252 8.64217 1.37674 11.2999 0.16868 12.3274C0.017055 12.4537 -0.0391636 12.6615 0.0279925 12.8471C0.0952111 13.0326 0.271398 13.1562 0.468773 13.1562ZM15.0625 14.0937H3.75001V13.1562H12.7187C12.8284 13.1562 12.9346 13.1178 13.0188 13.0476C13.5823 12.5782 14.4552 11.4608 15.0625 10.0296V14.0937ZM3.75001 2.84375H5.65626V3.3125C5.65626 3.57137 5.86613 3.78124 6.12501 3.78124C6.38388 3.78124 6.59376 3.57137 6.59376 3.3125V2.84375H8.9375V3.3125C8.9375 3.57137 9.14738 3.78124 9.40625 3.78124C9.66512 3.78124 9.875 3.57137 9.875 3.3125V2.84375H12.25V3.3125C12.25 3.57137 12.4599 3.78124 12.7187 3.78124C12.9776 3.78124 13.1875 3.57137 13.1875 3.3125V2.84375H15.0625V4.71874H3.75001V2.84375ZM3.74198 5.65593H15.0542C14.9485 8.62952 13.8073 10.9691 12.5349 12.2187H1.53499C2.97664 10.3818 3.66464 7.99005 3.74198 5.65593Z" fill="#111827"/>
</svg>
