<svg width="16" height="16" viewBox="0 0 16 16" fill="none" xmlns="http://www.w3.org/2000/svg">
<g clip-path="url(#clip0_182_161441)">
<circle cx="8" cy="8" r="8" fill="white"/>
<path d="M4.35355 3.64645C4.15829 3.45118 3.84171 3.45118 3.64645 3.64645C3.45118 3.84171 3.45118 4.15829 3.64645 4.35355L4.35355 3.64645ZM11.6464 12.3536C11.8417 12.5488 12.1583 12.5488 12.3536 12.3536C12.5488 12.1583 12.5488 11.8417 12.3536 11.6464L11.6464 12.3536ZM3.64645 4.35355L11.6464 12.3536L12.3536 11.6464L4.35355 3.64645L3.64645 4.35355Z" fill="#111827"/>
<path d="M3.64645 11.6464C3.45118 11.8417 3.45118 12.1583 3.64645 12.3536C3.84171 12.5488 4.15829 12.5488 4.35355 12.3536L3.64645 11.6464ZM12.3536 4.35355C12.5488 4.15829 12.5488 3.84171 12.3536 3.64645C12.1583 3.45118 11.8417 3.45118 11.6464 3.64645L12.3536 4.35355ZM4.35355 12.3536L12.3536 4.35355L11.6464 3.64645L3.64645 11.6464L4.35355 12.3536Z" fill="#111827"/>
</g>
<defs>
<clipPath id="clip0_182_161441">
<rect width="16" height="16" fill="white"/>
</clipPath>
</defs>
</svg>
