<svg width="18" height="18" viewBox="0 0 18 18" fill="none" xmlns="http://www.w3.org/2000/svg">
<g clip-path="url(#clip0_93_154674)">
<path d="M17.7291 15.5042C17.7116 15.4943 16.0966 14.5779 14.9499 13.3109C15.761 12.0225 16.1878 10.5436 16.1878 9.00798C16.1878 6.846 15.3459 4.81339 13.8171 3.28464C12.2884 1.75603 10.2558 0.914062 8.09392 0.914062C5.93194 0.914062 3.89933 1.75603 2.37072 3.28464C0.841966 4.81339 0 6.846 0 9.00798C0 11.1698 0.841966 13.2024 2.37072 14.7312C3.89933 16.2599 5.93194 17.1018 8.09392 17.1018C9.4738 17.1018 10.8251 16.7513 12.0226 16.0857C14.3826 17.3977 17.4815 16.5173 17.6174 16.4776C17.8227 16.4176 17.9722 16.2404 17.9965 16.028C18.0209 15.8154 17.9156 15.6091 17.7291 15.5042ZM12.3176 15.023C12.1461 14.9109 11.9253 14.9076 11.7503 15.0144C10.652 15.6845 9.38756 16.0388 8.09392 16.0388C4.21711 16.0388 1.06293 12.8848 1.06293 9.00798C1.06293 5.13103 4.21711 1.97699 8.09392 1.97699C11.9707 1.97699 15.1248 5.13103 15.1248 9.00798C15.1248 10.4628 14.6841 11.8591 13.8501 13.0456C13.7137 13.2396 13.7224 13.5007 13.8715 13.6851C14.5314 14.5021 15.3828 15.1981 16.0608 15.6851C15.0031 15.8004 13.4822 15.7831 12.3176 15.023V15.023Z" fill="#111827"/>
<path d="M11.6971 10.8391H4.49094C4.19733 10.8391 3.95947 11.0771 3.95947 11.3706C3.95947 11.6641 4.19733 11.9021 4.49094 11.9021H11.6971C11.9906 11.9021 12.2286 11.6641 12.2286 11.3706C12.2286 11.0771 11.9906 10.8391 11.6971 10.8391Z" fill="#111827"/>
<path d="M11.6971 8.4765H4.49094C4.19733 8.4765 3.95947 8.71449 3.95947 9.00809C3.95947 9.30156 4.19733 9.53955 4.49094 9.53955H11.6971C11.9906 9.53955 12.2286 9.30156 12.2286 9.00809C12.2286 8.71449 11.9906 8.4765 11.6971 8.4765Z" fill="#111827"/>
<path d="M11.6971 6.11417H4.49094C4.19733 6.11417 3.95947 6.35216 3.95947 6.64563C3.95947 6.93925 4.19733 7.1771 4.49094 7.1771H11.6971C11.9906 7.1771 12.2286 6.93925 12.2286 6.64563C12.2286 6.35216 11.9906 6.11417 11.6971 6.11417Z" fill="#111827"/>
</g>
<defs>
<clipPath id="clip0_93_154674">
<rect width="18" height="18" fill="white"/>
</clipPath>
</defs>
</svg>
