<svg width="18" height="18" viewBox="0 0 18 18" fill="none" xmlns="http://www.w3.org/2000/svg">
<path d="M2.74367 16.65H2.84098L7.53556 15.6284C7.627 15.6131 7.71173 15.5708 7.77878 15.5067L15.7327 7.55274C16.3138 6.97296 16.638 6.18436 16.6327 5.36359C16.6338 4.53644 16.3107 3.74183 15.7327 3.15008C15.153 2.56904 14.3644 2.24486 13.5436 2.25012C12.7176 2.24281 11.9252 2.57733 11.3544 3.17443L3.42472 11.1284C3.35479 11.1847 3.30381 11.2611 3.27876 11.3473L2.25719 16.0419C2.2293 16.2104 2.2835 16.3821 2.40315 16.5041C2.49296 16.5957 2.61536 16.6482 2.74367 16.65ZM13.5436 3.22309C14.7123 3.22299 15.6598 4.1704 15.6599 5.33914C15.6599 5.34729 15.6599 5.35544 15.6598 5.36359C15.6677 5.92037 15.4481 6.4563 15.0517 6.84734L12.0598 3.83113C12.454 3.43944 12.9879 3.22062 13.5436 3.22309ZM11.3787 4.53658L14.3706 7.52844L7.4382 14.4365L4.44634 11.4689L11.3787 4.53658ZM4.05717 12.4419L6.46524 14.85L3.37607 15.5311L4.05717 12.4419Z" fill="white"/>
</svg>
