<svg width="24" height="24" viewBox="0 0 24 24" fill="none" xmlns="http://www.w3.org/2000/svg">
<path d="M10.0552 22.5C9.84892 22.5 9.65106 22.4132 9.50518 22.2588C9.35929 22.1044 9.27733 21.8949 9.27733 21.6765V13.7582L2.06615 5.36235C1.78229 5.03119 1.59532 4.61993 1.52794 4.17846C1.46056 3.737 1.51567 3.28432 1.68658 2.87537C1.85749 2.46642 2.13685 2.11878 2.49075 1.87464C2.84466 1.6305 3.25789 1.50035 3.68031 1.5H20.3197C20.7421 1.50035 21.1553 1.6305 21.5092 1.87464C21.8632 2.11878 22.1425 2.46642 22.3134 2.87537C22.4843 3.28432 22.5394 3.737 22.4721 4.17846C22.4047 4.61993 22.2177 5.03119 21.9338 5.36235L14.7227 13.7582V18.3824C14.7226 18.5057 14.6963 18.6275 14.6459 18.7387C14.5954 18.8499 14.5219 18.9476 14.431 19.0247L10.5414 22.3188C10.4035 22.436 10.232 22.4999 10.0552 22.5ZM3.68031 3.14706C3.55926 3.14738 3.44089 3.18483 3.33953 3.25489C3.23817 3.32495 3.15816 3.4246 3.10919 3.5418C3.06022 3.65899 3.04438 3.7887 3.0636 3.91522C3.08281 4.04175 3.13625 4.15967 3.21745 4.25471L10.6309 12.9018C10.7579 13.0496 10.8298 13.2413 10.8331 13.4412V19.9635L13.1669 17.9706V13.4412C13.1664 13.2357 13.2385 13.0374 13.3691 12.8853L20.7825 4.23824C20.8589 4.14277 20.9082 4.02638 20.9247 3.90251C20.9413 3.77864 20.9243 3.65235 20.8759 3.53824C20.8275 3.42412 20.7496 3.32683 20.6512 3.25761C20.5527 3.18839 20.4378 3.15006 20.3197 3.14706H3.68031Z" fill="black"/>
</svg>
