<svg width="18" height="18" viewBox="0 0 18 18" fill="none" xmlns="http://www.w3.org/2000/svg">
<g clip-path="url(#clip0_93_154699)">
<path d="M5.30859 11.6719V14.4844C5.30859 14.7756 5.5447 15.0117 5.83594 15.0117H12.8672C13.1584 15.0117 13.3945 14.7756 13.3945 14.4844V11.6719C13.3945 11.3806 13.1584 11.1445 12.8672 11.1445H5.83594C5.54467 11.1445 5.30859 11.3806 5.30859 11.6719ZM6.36328 12.1992H12.3398V13.957H6.36328V12.1992Z" fill="#111827"/>
<path d="M16.6973 7.13595C16.6515 7.10177 16.6012 7.07586 16.5485 7.05832C16.5546 6.99107 16.5577 6.92339 16.5577 6.85547C16.5577 6.41313 16.4281 5.98605 16.1938 5.62243C16.8422 5.2155 17.2608 4.49687 17.2608 3.69141C17.2608 2.43137 16.2357 1.40625 14.9757 1.40625C14.8587 1.40625 14.7425 1.41539 14.6275 1.43353C14.289 0.585457 13.4652 0 12.5148 0C11.5766 0 10.7556 0.568617 10.4085 1.40625H10.4054C9.1904 1.40625 8.19418 2.35951 8.1245 3.55732C7.60527 3.64046 7.11224 3.84602 6.68682 4.15547L5.65793 2.3734C4.93101 1.11435 3.31522 0.681398 2.0561 1.40829C0.797017 2.13525 0.364067 3.751 1.09103 5.01012L2.25994 7.03477C2.16864 7.04514 2.08004 7.0792 2.0039 7.13605C1.85459 7.24753 1.7752 7.42954 1.79507 7.61477C1.97074 9.25446 2.14937 10.9395 2.32213 12.5692C2.46441 13.9113 2.60669 15.2533 2.74896 16.5861C2.83503 17.3921 3.51129 18 4.32207 18H14.3788C15.1899 18 15.8662 17.3918 15.952 16.5853L16.9064 7.61439C16.926 7.42915 16.8466 7.24732 16.6973 7.13595ZM10.4054 2.46094C10.4893 2.46094 10.5769 2.47138 10.6733 2.49282C10.8136 2.52404 10.9608 2.49659 11.0805 2.41678C11.2002 2.33694 11.2821 2.21164 11.3072 2.06996C11.4113 1.4817 11.9191 1.05469 12.5148 1.05469C13.138 1.05469 13.66 1.52575 13.729 2.15044C13.7476 2.31831 13.8454 2.46716 13.9922 2.55076C14.139 2.63436 14.3169 2.64259 14.4707 2.57291C14.6348 2.49862 14.8046 2.46094 14.9757 2.46094C15.6542 2.46094 16.2062 3.01293 16.2062 3.69141C16.2062 4.28776 15.7785 4.79566 15.1892 4.89913C14.9792 4.93601 14.8121 5.09569 14.7657 5.30378C14.7193 5.51187 14.8027 5.72741 14.9772 5.85C15.3065 6.0814 15.5031 6.45729 15.5031 6.8555C15.5031 7.03758 15.4612 7.2168 15.3818 7.38197C14.173 7.81949 12.9296 8.1219 11.6621 8.28752C11.7366 8.13132 11.7985 7.96939 11.848 7.80342C13.201 5.816 13.3845 3.82113 13.3918 3.73613C13.4164 3.44595 13.2012 3.19068 12.911 3.166C12.6208 3.14181 12.3655 3.35658 12.3409 3.64679C12.3398 3.65955 12.2571 4.55737 11.7834 5.70568C11.3732 4.59046 10.384 3.75286 9.18217 3.55866C9.24865 2.94237 9.77178 2.46094 10.4054 2.46094V2.46094ZM8.64759 4.57031C9.90762 4.57031 10.9327 5.59543 10.9327 6.85547C10.9327 7.44198 10.7151 7.98775 10.3174 8.41124C9.99639 8.42854 9.67415 8.4375 9.35071 8.4375C9.28655 8.4375 9.22246 8.43701 9.15837 8.43634L7.21855 5.07646C7.62211 4.75165 8.12622 4.57031 8.64759 4.57031V4.57031ZM1.84636 3.28229C1.95573 2.87413 2.21751 2.53297 2.58345 2.32165C3.33889 1.88554 4.30835 2.14527 4.74454 2.90074L5.19682 3.68413L3.69442 3.7743C3.40368 3.79174 3.18216 4.04156 3.1996 4.33227C3.2164 4.61225 3.44868 4.82804 3.7255 4.82804C3.73615 4.82804 3.74684 4.82773 3.7576 4.82709L5.78639 4.70535L6.25151 5.51095L4.74911 5.60113C4.4584 5.61857 4.23688 5.86842 4.25432 6.15909C4.27112 6.43908 4.50344 6.65487 4.78022 6.65487C4.79087 6.65487 4.80156 6.65455 4.81232 6.65392L6.84108 6.53214L7.90751 8.37928C6.49666 8.26534 5.1121 7.98405 3.76811 7.53771L2.00442 4.48277C1.7931 4.11683 1.73699 3.69049 1.84636 3.28229V3.28229ZM14.9032 16.4738C14.8746 16.7426 14.6492 16.9453 14.3788 16.9453H4.32207C4.05178 16.9453 3.82636 16.7427 3.79767 16.4741C3.65543 15.1416 3.51319 13.7998 3.37095 12.458C3.22832 11.1126 3.08168 9.72932 2.93599 8.3649C4.99485 9.11331 7.14863 9.49219 9.35071 9.49219C11.5531 9.49219 13.7068 9.11331 15.7659 8.36469L14.9032 16.4738Z" fill="#111827"/>
</g>
<defs>
<clipPath id="clip0_93_154699">
<rect width="18" height="18" fill="white"/>
</clipPath>
</defs>
</svg>
