<svg width="16" height="16" viewBox="0 0 16 16" fill="none" xmlns="http://www.w3.org/2000/svg">
<g clip-path="url(#clip0_1_3900)">
<path d="M8.0012 5.57054C8.44554 5.57054 8.80709 5.20945 8.80709 4.76565C8.80709 4.32024 8.44554 3.95786 8.0012 3.95786C7.55686 3.95786 7.19531 4.32024 7.19531 4.76565C7.19531 5.20945 7.55678 5.57054 8.0012 5.57054Z" fill="#111827"/>
<path d="M9.43002 10.8878H8.57307V7.67553C8.57307 7.35887 8.31642 7.10214 7.99968 7.10214H6.56949C6.25282 7.10214 5.99609 7.35887 5.99609 7.67553C5.99609 7.9922 6.25282 8.24893 6.56949 8.24893H7.42636V11.4611C7.42636 11.7778 7.68309 12.0345 7.99975 12.0345H9.4301C9.74684 12.0345 10.0035 11.7778 10.0035 11.4611C10.0034 11.1445 9.74676 10.8878 9.43002 10.8878Z" fill="#111827"/>
<path d="M8.00004 9.15527e-05C3.58874 9.15527e-05 0 3.58883 0 7.99997C0 12.4111 3.58874 15.9999 8.00004 15.9999C12.4113 15.9999 16 12.4112 16 7.99997C16 3.58876 12.4112 9.15527e-05 8.00004 9.15527e-05ZM8.00004 14.8531C4.22108 14.8531 1.14678 11.7789 1.14678 7.99997C1.14678 4.22109 4.22108 1.1468 8.00004 1.1468C11.779 1.1468 14.8532 4.22109 14.8532 7.99997C14.8532 11.7789 11.7789 14.8531 8.00004 14.8531Z" fill="#111827"/>
</g>
<defs>
<clipPath id="clip0_1_3900">
<rect width="16" height="16" fill="white"/>
</clipPath>
</defs>
</svg>
