<svg width="18" height="17" viewBox="0 0 18 17" fill="none" xmlns="http://www.w3.org/2000/svg">
<path d="M8.30414 16.7371C8.49667 16.9058 8.74373 16.9986 8.99998 16.9986C9.2561 16.9986 9.50329 16.9058 9.69569 16.7374C10.4245 16.1001 11.1267 15.5016 11.7463 14.9737L11.7465 14.9735C13.5596 13.4283 15.1253 12.094 16.2148 10.7792C17.4328 9.30968 18 7.9162 18 6.39391C18 4.91487 17.4929 3.55037 16.5722 2.55157C15.6404 1.54097 14.3617 0.984375 12.9717 0.984375C11.9326 0.984375 10.9811 1.31287 10.1435 1.96065C9.72069 2.28763 9.33767 2.68781 8.99998 3.15459C8.66243 2.68781 8.27928 2.28763 7.85658 1.96065C7.01901 1.31287 6.06746 0.984375 5.02843 0.984375C3.63825 0.984375 2.35972 1.54097 1.42795 2.55157C0.507155 3.55037 0 4.91487 0 6.39391C0 7.9162 0.567305 9.30968 1.78527 10.7794C2.87484 12.094 4.4408 13.4286 6.25423 14.974L6.25739 14.9767C6.87592 15.5038 7.57698 16.1013 8.30414 16.7371Z" fill="#DC2828"/>
</svg>
