<svg width="16" height="16" viewBox="0 0 16 16" fill="none" xmlns="http://www.w3.org/2000/svg">
<path d="M12.9714 7.81791C14.6112 6.34373 14.7455 3.81936 13.2714 2.17954C11.9193 0.675567 9.65621 0.420065 8.00287 1.58477C6.20053 0.312789 3.70834 0.742731 2.43636 2.54503C1.26921 4.19881 1.52367 6.46423 3.02862 7.81788C1.15869 8.80359 -0.00839461 10.7469 7.63204e-05 12.8607V14.575C7.63204e-05 14.8906 0.255912 15.1464 0.571513 15.1464H15.4286C15.7442 15.1464 16 14.8906 16 14.575V12.8607C16.0084 10.7469 14.8414 8.80359 12.9714 7.81791ZM10.2857 2.00363C11.8614 2.00189 13.1402 3.27785 13.142 4.85358C13.1433 5.97737 12.4847 6.9972 11.46 7.45845C11.416 7.47844 11.372 7.49672 11.3274 7.5156C11.1864 7.57249 11.041 7.61776 10.8926 7.65104C10.864 7.65733 10.8354 7.66075 10.8063 7.66647C10.6405 7.69825 10.4722 7.71526 10.3034 7.71733C10.2274 7.71733 10.1508 7.71161 10.0748 7.70478C10.0463 7.70478 10.0177 7.70478 9.98912 7.69905C9.66434 7.66081 9.34841 7.5677 9.05484 7.42363C9.04399 7.41847 9.0314 7.41904 9.02055 7.41449C8.9634 7.38706 8.90628 7.36306 8.85542 7.33219C8.86001 7.32646 8.86285 7.3202 8.8674 7.31448C9.12943 6.97778 9.33602 6.60144 9.47939 6.19963L9.4971 6.15161C9.56229 5.95969 9.61291 5.76315 9.64854 5.5636C9.65369 5.53447 9.65768 5.50645 9.66227 5.47504C9.69531 5.27191 9.71269 5.06656 9.71426 4.86075C9.71262 4.65534 9.69525 4.45036 9.66227 4.24759C9.65768 4.21789 9.65369 4.19044 9.64854 4.15903C9.61291 3.95951 9.56229 3.76294 9.4971 3.57102L9.47939 3.52301C9.33602 3.12119 9.1294 2.74485 8.8674 2.40816C8.86282 2.40243 8.85997 2.39617 8.85542 2.39045C9.28955 2.13719 9.7831 2.00366 10.2857 2.00363ZM2.85719 4.86078C2.85314 3.28693 4.12569 2.00778 5.69954 2.00373C6.43728 2.00182 7.14703 2.28612 7.67946 2.79678C7.71261 2.82879 7.74519 2.86077 7.77717 2.89392C7.8753 2.99674 7.9658 3.10656 8.04803 3.22247C8.07318 3.2579 8.09605 3.29563 8.11945 3.3322C8.19931 3.45511 8.26942 3.58408 8.32915 3.71791C8.34345 3.75049 8.35429 3.78363 8.36685 3.81618C8.42708 3.9642 8.47449 4.11715 8.50858 4.27331C8.5126 4.29045 8.51374 4.30759 8.51715 4.3253C8.58954 4.68011 8.58954 5.0459 8.51715 5.40071C8.51374 5.41842 8.51256 5.43557 8.50858 5.45271C8.47453 5.60887 8.42712 5.76182 8.36685 5.90984C8.35429 5.94242 8.34341 5.97556 8.32915 6.00811C8.26935 6.14174 8.19924 6.27051 8.11945 6.39325C8.09601 6.42981 8.07318 6.46755 8.04803 6.50297C7.96584 6.61892 7.8753 6.72871 7.77717 6.83153C7.74516 6.86468 7.71258 6.89669 7.67946 6.92866C7.4481 7.14914 7.18135 7.32917 6.89033 7.46123C6.84406 7.48235 6.79718 7.50181 6.74977 7.51838C6.61203 7.57306 6.4703 7.61699 6.32579 7.6498C6.2898 7.6578 6.25263 7.66235 6.21607 7.66865C6.06091 7.69754 5.90358 7.71338 5.74578 7.71609H5.68294C5.52514 7.71341 5.3678 7.69754 5.21265 7.66865C5.17609 7.66235 5.13892 7.6578 5.10293 7.6498C4.95842 7.61699 4.81666 7.57306 4.67895 7.51838C4.6315 7.49953 4.58466 7.48011 4.53839 7.46123C3.51605 6.99964 2.8585 5.98246 2.85719 4.86078ZM10.2857 14.0036H1.14292V12.8607C1.13455 10.9244 2.35456 9.19553 4.18174 8.55448C5.16263 8.96286 6.26596 8.96286 7.24688 8.55448C7.43766 8.62419 7.62358 8.70646 7.80345 8.80078C7.92231 8.86191 8.03203 8.93162 8.1463 9.0019C8.2206 9.04817 8.296 9.09334 8.36745 9.1442C8.47774 9.22248 8.58174 9.30763 8.68402 9.39505C8.74975 9.4522 8.81487 9.50932 8.87658 9.56647C8.97086 9.6556 9.05942 9.74989 9.14457 9.84648C9.20571 9.91619 9.26514 9.98704 9.32172 10.0602C9.39659 10.1562 9.468 10.2545 9.5343 10.3556C9.59145 10.4413 9.64231 10.5305 9.69257 10.6196C9.74972 10.7179 9.80229 10.8162 9.85027 10.9185C9.89828 11.0208 9.94057 11.1328 9.98168 11.2419C10.0177 11.3368 10.056 11.4311 10.0857 11.5276C10.1257 11.6602 10.1537 11.7973 10.1817 11.9345C10.1988 12.0156 10.2211 12.095 10.2337 12.1773C10.2675 12.4035 10.2849 12.632 10.2857 12.8607V14.0036H10.2857ZM14.8571 14.0036H11.4286V12.8607C11.4286 12.6819 11.4183 12.5047 11.4023 12.3293C11.3977 12.2779 11.3897 12.227 11.384 12.1756C11.3686 12.0493 11.3509 11.9242 11.3269 11.8002C11.3166 11.7472 11.3057 11.6941 11.2943 11.6407C11.2669 11.5135 11.235 11.3874 11.1989 11.2624C11.1869 11.2213 11.176 11.1796 11.1634 11.139C11.0034 10.6275 10.7716 10.1414 10.4749 9.69505L10.4526 9.66247C10.3543 9.51655 10.2493 9.37543 10.1377 9.23905L10.1337 9.2339C10.0195 9.0922 9.89543 8.95446 9.76516 8.82418C9.77259 8.82418 9.78059 8.82418 9.78859 8.82418C9.94984 8.84537 10.1122 8.85682 10.2749 8.85846H10.3063C10.4569 8.85716 10.6072 8.84742 10.7566 8.82934C10.8035 8.82361 10.8498 8.81504 10.8966 8.8076C11.0182 8.78896 11.1382 8.76475 11.2566 8.73505C11.2903 8.72648 11.3246 8.71848 11.3589 8.70877C11.5144 8.66648 11.667 8.61455 11.816 8.55334C13.6445 9.19375 14.8657 10.9234 14.8572 12.8608V14.0036H14.8571Z" fill="#111827"/>
</svg>
