<svg width="24" height="24" viewBox="0 0 24 24" fill="none" xmlns="http://www.w3.org/2000/svg">
<path d="M4 2.40002H0.8C0.3584 2.40002 0 2.75842 0 3.20002V6.40002C0 6.84162 0.3584 7.20002 0.8 7.20002C1.2416 7.20002 1.6 6.84162 1.6 6.40002V4.00002H4C4.4416 4.00002 4.8 3.64162 4.8 3.20002C4.8 2.75842 4.4416 2.40002 4 2.40002Z" fill="black"/>
<path d="M23.2 16.8C22.7584 16.8 22.4 17.1584 22.4 17.6V20H20C19.5584 20 19.2 20.3584 19.2 20.8C19.2 21.2416 19.5584 21.6 20 21.6H23.2C23.6416 21.6 24 21.2416 24 20.8V17.6C24 17.1584 23.6416 16.8 23.2 16.8Z" fill="black"/>
<path d="M23.2 2.40002H20C19.5584 2.40002 19.2 2.75842 19.2 3.20002C19.2 3.64162 19.5584 4.00002 20 4.00002H22.4V6.40002C22.4 6.84162 22.7584 7.20002 23.2 7.20002C23.6416 7.20002 24 6.84162 24 6.40002V3.20002C24 2.75842 23.6416 2.40002 23.2 2.40002Z" fill="black"/>
<path d="M4 20H1.6V17.6C1.6 17.1584 1.2416 16.8 0.8 16.8C0.3584 16.8 0 17.1584 0 17.6V20.8C0 21.2416 0.3584 21.6 0.8 21.6H4C4.4416 21.6 4.8 21.2416 4.8 20.8C4.8 20.3584 4.4416 20 4 20Z" fill="black"/>
<path d="M4.79995 5.59998H3.19995V18.4H4.79995V5.59998Z" fill="black"/>
<path d="M7.9999 5.59998H6.3999V15.2H7.9999V5.59998Z" fill="black"/>
<path d="M11.2001 5.59998H9.6001V15.2H11.2001V5.59998Z" fill="black"/>
<path d="M14.4 5.59998H12.8V18.4H14.4V5.59998Z" fill="black"/>
<path d="M17.6 5.59998H16V15.2H17.6V5.59998Z" fill="black"/>
<path d="M20.8 5.59998H19.2V18.4H20.8V5.59998Z" fill="black"/>
<path d="M7.9999 16.8H6.3999V18.4H7.9999V16.8Z" fill="black"/>
<path d="M11.2001 16.8H9.6001V18.4H11.2001V16.8Z" fill="black"/>
<path d="M17.6 16.8H16V18.4H17.6V16.8Z" fill="black"/>
</svg>
