<svg width="16" height="16" viewBox="0 0 16 16" fill="none" xmlns="http://www.w3.org/2000/svg">
<path d="M14.6154 1.0769H1.38462C0.621125 1.0769 0 1.69803 0 2.4615V11.0769C0 11.8403 0.621125 12.4615 1.38462 12.4615H5.92309L7.63078 14.7384C7.71794 14.8547 7.85472 14.9231 8 14.9231C8.14528 14.9231 8.28206 14.8547 8.36922 14.7384L10.0769 12.4615H14.6154C15.3788 12.4615 16 11.8404 16 11.0769V2.4615C16 1.69803 15.3789 1.0769 14.6154 1.0769ZM15.0769 11.0769C15.0769 11.3314 14.8699 11.5384 14.6154 11.5384H9.84616C9.70087 11.5384 9.56409 11.6068 9.47694 11.7231L8 13.6923L6.52306 11.7231C6.43591 11.6068 6.29913 11.5384 6.15384 11.5384H1.38462C1.13012 11.5384 0.923094 11.3314 0.923094 11.0769V2.4615C0.923062 2.207 1.13012 1.99997 1.38462 1.99997H14.6154C14.8699 1.99997 15.0769 2.207 15.0769 2.4615V11.0769Z" fill="white"/>
<path d="M9.52397 6.65342C10.0037 6.23026 10.3071 5.61163 10.3071 4.92317C10.3071 3.6507 9.27188 2.61548 7.99941 2.61548C6.72694 2.61548 5.69172 3.6507 5.69172 4.92317C5.69172 5.61163 5.99516 6.23023 6.47484 6.65342C5.28475 7.22401 4.46094 8.44067 4.46094 9.84626C4.46094 10.1012 4.66759 10.3078 4.92247 10.3078H11.0763C11.3312 10.3078 11.5378 10.1011 11.5378 9.84626C11.5379 8.4407 10.7141 7.22401 9.52397 6.65342ZM7.99941 3.53857C8.76288 3.53857 9.38403 4.1597 9.38403 4.9232C9.38403 5.6867 8.76288 6.30779 7.99941 6.30779C7.23594 6.30779 6.61478 5.68667 6.61478 4.92317C6.61478 4.15967 7.23594 3.53857 7.99941 3.53857ZM5.42478 9.38473C5.64341 8.16198 6.71475 7.23088 7.99941 7.23088C9.28406 7.23088 10.3554 8.16198 10.574 9.38473H5.42478Z" fill="white"/>
</svg>
