<svg width="18" height="18" viewBox="0 0 18 18" fill="none" xmlns="http://www.w3.org/2000/svg">
<g clip-path="url(#clip0_93_154689)">
<path d="M13.8442 12.1075C13.4337 12.1072 13.0276 12.1929 12.6522 12.3591C12.2768 12.5253 11.9403 12.7684 11.6645 13.0725L6.81297 10.0684C7.08157 9.38145 7.08157 8.61854 6.81297 7.9316L11.6645 4.9275C12.1591 5.47158 12.8391 5.81124 13.5712 5.87985C14.3033 5.94847 15.0346 5.74108 15.6216 5.29838C16.2087 4.85568 16.6092 4.20961 16.7445 3.4869C16.8799 2.76418 16.7403 2.01698 16.3532 1.39185C15.9661 0.766715 15.3594 0.308771 14.6521 0.10784C13.9448 -0.0930909 13.188 -0.0225092 12.53 0.305741C11.8721 0.63399 11.3605 1.19622 11.0957 1.88215C10.8309 2.56808 10.8319 3.32821 11.0985 4.01343L6.24695 7.01753C5.84701 6.57745 5.32324 6.2687 4.74453 6.13188C4.16582 5.99506 3.55924 6.03658 3.00457 6.25097C2.44989 6.46536 1.97308 6.84259 1.63682 7.33306C1.30056 7.82353 1.12061 8.40427 1.12061 8.99894C1.12061 9.59361 1.30056 10.1744 1.63682 10.6648C1.97308 11.1553 2.44989 11.5325 3.00457 11.7469C3.55924 11.9613 4.16582 12.0028 4.74453 11.866C5.32324 11.7292 5.84701 11.4204 6.24695 10.9803L11.0985 13.9844C10.8704 14.5709 10.8362 15.215 11.0007 15.8224C11.1652 16.4297 11.5199 16.9684 12.0128 17.3596C12.5057 17.7508 13.1109 17.9738 13.7398 17.996C14.3687 18.0183 14.9881 17.8386 15.5074 17.4832C16.0268 17.1279 16.4186 16.6156 16.6257 16.0214C16.8327 15.4271 16.844 14.7822 16.658 14.1811C16.4719 13.58 16.0982 13.0543 15.5917 12.6809C15.0852 12.3076 14.4724 12.1062 13.8432 12.1064L13.8442 12.1075ZM11.9725 2.94609C11.9725 2.57581 12.0823 2.21385 12.288 1.90599C12.4937 1.59812 12.7861 1.35817 13.1282 1.21649C13.4703 1.07481 13.8468 1.03775 14.2099 1.11002C14.5731 1.18228 14.9066 1.36061 15.1684 1.62246C15.4302 1.88431 15.6085 2.21791 15.6807 2.58108C15.7529 2.94425 15.7158 3.32067 15.574 3.66274C15.4323 4.00481 15.1923 4.29717 14.8844 4.50283C14.5765 4.70849 14.2145 4.81823 13.8442 4.81816C13.3479 4.8176 12.8721 4.62018 12.5212 4.26921C12.1703 3.91823 11.973 3.44239 11.9725 2.94609V2.94609ZM4.07008 10.8721C3.69982 10.8721 3.33787 10.7623 3.03001 10.5566C2.72215 10.3509 2.4822 10.0585 2.34051 9.71641C2.19882 9.37433 2.16174 8.99792 2.23398 8.63477C2.30621 8.27163 2.48451 7.93806 2.74632 7.67624C3.00814 7.41443 3.34171 7.23613 3.70485 7.1639C4.068 7.09166 4.44441 7.12874 4.78649 7.27043C5.12856 7.41212 5.42094 7.65207 5.62665 7.95993C5.83235 8.26779 5.94215 8.62974 5.94215 9C5.94159 9.49633 5.74417 9.97217 5.39321 10.3231C5.04225 10.6741 4.56641 10.8715 4.07008 10.8721ZM11.9725 15.0557C11.9724 14.6854 12.0822 14.3234 12.2879 14.0155C12.4935 13.7075 12.7859 13.4675 13.128 13.3258C13.4701 13.1841 13.8465 13.147 14.2097 13.2192C14.5729 13.2914 14.9065 13.4697 15.1683 13.7316C15.4302 13.9934 15.6085 14.327 15.6807 14.6902C15.7529 15.0534 15.7158 15.4298 15.5741 15.7719C15.4323 16.114 15.1923 16.4063 14.8844 16.612C14.5765 16.8177 14.2145 16.9274 13.8442 16.9274C13.3477 16.9268 12.8717 16.7292 12.5207 16.3779C12.1698 16.0267 11.9726 15.5504 11.9725 15.0539V15.0557Z" fill="#111827"/>
</g>
<defs>
<clipPath id="clip0_93_154689">
<rect width="18" height="18" fill="white"/>
</clipPath>
</defs>
</svg>
