<svg width="16" height="16" viewBox="0 0 16 16" fill="none" xmlns="http://www.w3.org/2000/svg">
<g clip-path="url(#clip0_283_10333)">
<path d="M12.9714 7.81791C14.6112 6.34373 14.7455 3.81936 13.2713 2.17954C11.9193 0.675567 9.65618 0.420065 8.00284 1.58477C6.2005 0.312789 3.70831 0.742731 2.43633 2.54503C1.26918 4.19881 1.52364 6.46423 3.02859 7.81788C1.15866 8.80359 -0.00842513 10.7469 4.58028e-05 12.8607V14.575C4.58028e-05 14.8906 0.255881 15.1464 0.571482 15.1464H15.4285C15.7441 15.1464 16 14.8906 16 14.575V12.8607C16.0084 10.7469 14.8413 8.80359 12.9714 7.81791ZM10.2857 2.00363C11.8614 2.00189 13.1402 3.27785 13.142 4.85358C13.1432 5.97737 12.4847 6.9972 11.4599 7.45845C11.416 7.47844 11.372 7.49672 11.3274 7.5156C11.1864 7.57249 11.0409 7.61776 10.8925 7.65104C10.864 7.65733 10.8354 7.66075 10.8062 7.66647C10.6404 7.69825 10.4722 7.71526 10.3034 7.71733C10.2274 7.71733 10.1508 7.71161 10.0748 7.70478C10.0462 7.70478 10.0176 7.70478 9.98909 7.69905C9.66431 7.66081 9.34838 7.5677 9.05481 7.42363C9.04396 7.41847 9.03137 7.41904 9.02052 7.41449C8.96337 7.38706 8.90625 7.36306 8.85539 7.33219C8.85997 7.32646 8.86282 7.3202 8.86737 7.31448C9.1294 6.97778 9.33599 6.60144 9.47936 6.19963L9.49707 6.15161C9.56226 5.95969 9.61288 5.76315 9.64851 5.5636C9.65366 5.53447 9.65765 5.50645 9.66224 5.47504C9.69528 5.27191 9.71266 5.06656 9.71423 4.86075C9.71259 4.65534 9.69522 4.45036 9.66224 4.24759C9.65765 4.21789 9.65366 4.19044 9.64851 4.15903C9.61288 3.95951 9.56226 3.76294 9.49707 3.57102L9.47936 3.52301C9.33599 3.12119 9.12937 2.74485 8.86737 2.40816C8.86279 2.40243 8.85994 2.39617 8.85539 2.39045C9.28951 2.13719 9.78307 2.00366 10.2857 2.00363ZM2.85716 4.86078C2.85311 3.28693 4.12566 2.00778 5.69951 2.00373C6.43725 2.00182 7.147 2.28612 7.67943 2.79678C7.71258 2.82879 7.74516 2.86077 7.77714 2.89392C7.87527 2.99674 7.96577 3.10656 8.048 3.22247C8.07315 3.2579 8.09602 3.29563 8.11942 3.3322C8.19928 3.45511 8.26939 3.58408 8.32912 3.71791C8.34342 3.75049 8.35426 3.78363 8.36682 3.81618C8.42705 3.9642 8.47446 4.11715 8.50855 4.27331C8.51257 4.29045 8.51371 4.30759 8.51712 4.3253C8.58951 4.68011 8.58951 5.0459 8.51712 5.40071C8.51371 5.41842 8.51253 5.43557 8.50855 5.45271C8.4745 5.60887 8.42709 5.76182 8.36682 5.90984C8.35426 5.94242 8.34338 5.97556 8.32912 6.00811C8.26932 6.14174 8.19921 6.27051 8.11942 6.39325C8.09598 6.42981 8.07315 6.46755 8.048 6.50297C7.96581 6.61892 7.87527 6.72871 7.77714 6.83153C7.74513 6.86468 7.71255 6.89669 7.67943 6.92866C7.44807 7.14914 7.18132 7.32917 6.8903 7.46123C6.84403 7.48235 6.79715 7.50181 6.74974 7.51838C6.612 7.57306 6.47027 7.61699 6.32576 7.6498C6.28977 7.6578 6.2526 7.66235 6.21604 7.66865C6.06088 7.69754 5.90355 7.71338 5.74575 7.71609H5.68291C5.5251 7.71341 5.36777 7.69754 5.21262 7.66865C5.17606 7.66235 5.13889 7.6578 5.1029 7.6498C4.95839 7.61699 4.81663 7.57306 4.67892 7.51838C4.63147 7.49953 4.58463 7.48011 4.53836 7.46123C3.51602 6.99964 2.85847 5.98246 2.85716 4.86078ZM10.2857 14.0036H1.14289V12.8607C1.13451 10.9244 2.35453 9.19553 4.18171 8.55448C5.1626 8.96286 6.26593 8.96286 7.24685 8.55448C7.43763 8.62419 7.62355 8.70646 7.80342 8.80078C7.92228 8.86191 8.032 8.93162 8.14627 9.0019C8.22057 9.04817 8.29597 9.09334 8.36742 9.1442C8.47771 9.22248 8.58171 9.30763 8.68399 9.39505C8.74972 9.4522 8.81484 9.50932 8.87655 9.56647C8.97083 9.6556 9.05939 9.74989 9.14454 9.84648C9.20568 9.91619 9.26511 9.98704 9.32169 10.0602C9.39656 10.1562 9.46797 10.2545 9.53427 10.3556C9.59142 10.4413 9.64228 10.5305 9.69254 10.6196C9.74969 10.7179 9.80226 10.8162 9.85024 10.9185C9.89825 11.0208 9.94054 11.1328 9.98165 11.2419C10.0176 11.3368 10.056 11.4311 10.0856 11.5276C10.1257 11.6602 10.1537 11.7973 10.1816 11.9345C10.1988 12.0156 10.2211 12.095 10.2336 12.1773C10.2675 12.4035 10.2849 12.632 10.2856 12.8607V14.0036H10.2857ZM14.8571 14.0036H11.4285V12.8607C11.4285 12.6819 11.4183 12.5047 11.4023 12.3293C11.3977 12.2779 11.3897 12.227 11.384 12.1756C11.3685 12.0493 11.3508 11.9242 11.3268 11.8002C11.3165 11.7472 11.3057 11.6941 11.2942 11.6407C11.2668 11.5135 11.235 11.3874 11.1988 11.2624C11.1868 11.2213 11.176 11.1796 11.1634 11.139C11.0034 10.6275 10.7715 10.1414 10.4748 9.69505L10.4525 9.66247C10.3543 9.51655 10.2493 9.37543 10.1377 9.23905L10.1337 9.2339C10.0194 9.0922 9.8954 8.95446 9.76513 8.82418C9.77256 8.82418 9.78056 8.82418 9.78856 8.82418C9.94981 8.84537 10.1122 8.85682 10.2749 8.85846H10.3063C10.4568 8.85716 10.6071 8.84742 10.7566 8.82934C10.8034 8.82361 10.8497 8.81504 10.8966 8.8076C11.0181 8.78896 11.1381 8.76475 11.2566 8.73505C11.2903 8.72648 11.3246 8.71848 11.3589 8.70877C11.5143 8.66648 11.667 8.61455 11.816 8.55334C13.6445 9.19375 14.8656 10.9234 14.8571 12.8608V14.0036H14.8571Z" fill="white"/>
</g>
<defs>
<clipPath id="clip0_283_10333">
<rect width="16" height="16" fill="white"/>
</clipPath>
</defs>
</svg>
