<svg width="18" height="18" viewBox="0 0 18 18" fill="none" xmlns="http://www.w3.org/2000/svg">
<g clip-path="url(#clip0_93_154681)">
<path d="M17.6115 2.4801L13.4382 0.0706641C13.2751 -0.0235547 13.074 -0.0235547 12.9109 0.0706641L9.00129 2.32787L5.09171 0.0706641C4.92855 -0.0235547 4.72753 -0.0235547 4.56437 0.0706641L0.391113 2.4801C0.227953 2.57428 0.127441 2.74838 0.127441 2.93678V7.75564C0.127441 7.94405 0.227953 8.11814 0.391113 8.21232L4.26621 10.4496V15.0433C4.26621 15.2317 4.36672 15.4058 4.52988 15.5L8.73762 17.9293C8.81918 17.9764 8.91024 18 9.00129 18C9.09235 18 9.1834 17.9764 9.26496 17.9293L13.4727 15.5C13.6359 15.4058 13.7364 15.2317 13.7364 15.0433V10.4496L17.6115 8.21232C17.7746 8.11814 17.8751 7.94405 17.8751 7.75564V2.93678C17.8751 2.74838 17.7746 2.57428 17.6115 2.4801V2.4801ZM1.18213 3.24123L4.82804 1.13625L8.47395 3.24123V7.4508L4.82772 9.55596L1.18213 7.45116V3.24123ZM9.00129 16.8637L5.32089 14.7389V10.4895L9.00129 8.36455L12.6817 10.4894V14.7388L9.00129 16.8637ZM16.8205 7.45119L13.1749 9.556L9.52864 7.4508V3.24123L13.1745 1.13625L16.8205 3.24123V7.45119Z" fill="#111827"/>
<path d="M6.9351 5.34621C6.9351 4.15023 5.96211 3.17725 4.76613 3.17725C3.57015 3.17725 2.59717 4.15023 2.59717 5.34621C2.59717 6.54219 3.57015 7.51518 4.76613 7.51518C5.96211 7.51518 6.9351 6.54219 6.9351 5.34621ZM3.65186 5.34621C3.65186 4.73179 4.15171 4.23193 4.76613 4.23193C5.38056 4.23193 5.88041 4.73179 5.88041 5.34621C5.88041 5.96064 5.38056 6.46049 4.76613 6.46049C4.15171 6.46049 3.65186 5.96064 3.65186 5.34621V5.34621Z" fill="#111827"/>
<path d="M11.0698 5.34621C11.0698 6.54219 12.0428 7.51518 13.2388 7.51518C14.4348 7.51518 15.4078 6.54219 15.4078 5.34621C15.4078 4.15023 14.4348 3.17725 13.2388 3.17725C12.0428 3.17725 11.0698 4.15023 11.0698 5.34621ZM13.2388 4.23193C13.8532 4.23193 14.3531 4.73179 14.3531 5.34621C14.3531 5.96064 13.8532 6.46049 13.2388 6.46049C12.6244 6.46049 12.1245 5.96064 12.1245 5.34621C12.1245 4.73179 12.6244 4.23193 13.2388 4.23193Z" fill="#111827"/>
<path d="M9.00246 10.4453C7.80648 10.4453 6.8335 11.4182 6.8335 12.6142C6.8335 13.8102 7.80648 14.7832 9.00246 14.7832C10.1984 14.7832 11.1714 13.8102 11.1714 12.6142C11.1714 11.4182 10.1984 10.4453 9.00246 10.4453ZM9.00246 13.7285C8.38804 13.7285 7.88818 13.2286 7.88818 12.6142C7.88818 11.9998 8.38804 11.4999 9.00246 11.4999C9.61689 11.4999 10.1167 11.9998 10.1167 12.6142C10.1167 13.2286 9.61689 13.7285 9.00246 13.7285Z" fill="#111827"/>
</g>
<defs>
<clipPath id="clip0_93_154681">
<rect width="18" height="18" fill="white"/>
</clipPath>
</defs>
</svg>
