<svg width="18" height="17" viewBox="0 0 18 17" fill="none" xmlns="http://www.w3.org/2000/svg">
<path d="M8.04894 0.677052C8.3483 -0.244258 9.6517 -0.24426 9.95106 0.67705L11.3013 4.83258C11.4351 5.2446 11.8191 5.52356 12.2523 5.52356H16.6217C17.5904 5.52356 17.9932 6.76317 17.2095 7.33258L13.6746 9.90083C13.3241 10.1555 13.1774 10.6068 13.3113 11.0189L14.6615 15.1744C14.9609 16.0957 13.9064 16.8618 13.1227 16.2924L9.58779 13.7242C9.2373 13.4695 8.7627 13.4695 8.41221 13.7242L4.87732 16.2924C4.0936 16.8618 3.03912 16.0957 3.33847 15.1744L4.68868 11.0189C4.82256 10.6068 4.6759 10.1555 4.32541 9.90083L0.790514 7.33258C0.00679994 6.76318 0.409574 5.52356 1.3783 5.52356H5.74767C6.1809 5.52356 6.56486 5.2446 6.69873 4.83258L8.04894 0.677052Z" fill="#16A249"/>
</svg>
